<?xml version="1.0" encoding="UTF-8"?>
<!DOCTYPE svg PUBLIC "-//W3C//DTD SVG 1.1//EN" "http://www.w3.org/Graphics/SVG/1.1/DTD/svg11.dtd">
<svg xmlns="http://www.w3.org/2000/svg" version="1.1" width="8334px" height="8334px" style="shape-rendering:geometricPrecision; text-rendering:geometricPrecision; image-rendering:optimizeQuality; fill-rule:evenodd; clip-rule:evenodd" xmlns:xlink="http://www.w3.org/1999/xlink">
<g><path style="opacity:0.993" fill="#065981" d="M 1186.5,3189.5 C 1196.17,3189.5 1205.83,3189.5 1215.5,3189.5C 1215.45,3257.17 1215.78,3324.84 1216.5,3392.5C 1382.17,3392.33 1547.83,3392.5 1713.5,3393C 1784.59,3394.88 1852.26,3410.88 1916.5,3441C 2010.08,3489.99 2063.91,3567.16 2078,3672.5C 2083.55,3712.03 2082.55,3751.37 2075,3790.5C 2060.88,3846.26 2030.72,3891.09 1984.5,3925C 1967.94,3936.79 1950.27,3946.79 1931.5,3955C 1990.94,3974.78 2037.11,4011.28 2070,4064.5C 2119.18,4146.11 2130.18,4232.77 2103,4324.5C 2080.55,4403.27 2033.39,4462.1 1961.5,4501C 1903.79,4529.68 1842.79,4547.01 1778.5,4553C 1750.25,4556 1721.91,4557.66 1693.5,4558C 1650.5,4558.5 1607.5,4558.67 1564.5,4558.5C 1564.45,4737.83 1564.11,4917.17 1563.5,5096.5C 1553.83,5096.5 1544.17,5096.5 1534.5,5096.5C 1534.5,4774.17 1534.5,4451.83 1534.5,4129.5C 1393.68,4165.2 1253.02,4201.54 1112.5,4238.5C 1111.5,4524.83 1111.17,4811.17 1111.5,5097.5C 1101.83,5097.5 1092.17,5097.5 1082.5,5097.5C 1082.33,4803.5 1082.5,4509.5 1083,4215.5C 1117.17,4206.58 1151.33,4197.58 1185.5,4188.5C 1186.67,3940.83 1186.83,3693.17 1186,3445.5C 1144.95,3512.3 1085.12,3548.96 1006.5,3555.5C 1006.5,4069.17 1006.5,4582.83 1006.5,5096.5C 996.833,5096.5 987.167,5096.5 977.5,5096.5C 977.5,4573.17 977.5,4049.83 977.5,3526.5C 1061.96,3528.87 1124.79,3493.54 1166,3420.5C 1175.55,3401.18 1181.88,3380.85 1185,3359.5C 1186.46,3302.86 1186.96,3246.19 1186.5,3189.5 Z M 1344.5,3592.5 C 1458.17,3592.33 1571.83,3592.5 1685.5,3593C 1724.36,3592.8 1760.69,3602.13 1794.5,3621C 1849.02,3656.56 1870.19,3706.39 1858,3770.5C 1848.75,3800.16 1830.25,3821.99 1802.5,3836C 1772.43,3850.1 1740.76,3857.77 1707.5,3859C 1613.5,3859.5 1519.5,3859.67 1425.5,3859.5C 1425.83,3797.16 1425.5,3734.83 1424.5,3672.5C 1398.17,3687.17 1371.83,3701.83 1345.5,3716.5C 1344.5,3675.17 1344.17,3633.84 1344.5,3592.5 Z M 1393.5,3723.5 C 1395.5,3860.16 1396.17,3997.16 1395.5,4134.5C 1336.09,4149.52 1276.76,4164.85 1217.5,4180.5C 1216.17,4061.17 1216.17,3941.83 1217.5,3822.5C 1276.23,3789.47 1334.9,3756.47 1393.5,3723.5 Z M 1425.5,4053.5 C 1512.83,4053.33 1600.17,4053.5 1687.5,4054C 1748.17,4056.66 1802.17,4076.66 1849.5,4114C 1892.57,4151.78 1906.4,4198.28 1891,4253.5C 1879.25,4281.59 1860.08,4303.09 1833.5,4318C 1790.81,4339.67 1745.48,4351.01 1697.5,4352C 1652.83,4352.5 1608.17,4352.67 1563.5,4352.5C 1563.67,4265.17 1563.5,4177.83 1563,4090.5C 1517.5,4102.42 1472,4114.42 1426.5,4126.5C 1425.5,4102.18 1425.17,4077.84 1425.5,4053.5 Z"/></g>
<g><path style="opacity:0.997" fill="#065981" d="M 2171.5,3388.5 C 2338.83,3388.33 2506.17,3388.5 2673.5,3389C 2731.12,3390.06 2786.46,3401.72 2839.5,3424C 2938.02,3470.6 2993.18,3548.43 3005,3657.5C 3021.44,3824.7 2947.6,3925.53 2783.5,3960C 2839.49,3967.34 2889.49,3988.34 2933.5,4023C 2983.59,4067.54 3012.43,4123.37 3020,4190.5C 3026.05,4242.14 3022.71,4293.14 3010,4343.5C 2983.45,4434.39 2925.95,4496.89 2837.5,4531C 2791.98,4547.64 2744.98,4556.97 2696.5,4559C 2521.5,4559.5 2346.5,4559.67 2171.5,4559.5C 2171.5,4169.17 2171.5,3778.83 2171.5,3388.5 Z M 2392.5,3602.5 C 2482.83,3602.33 2573.17,3602.5 2663.5,3603C 2696.82,3604.54 2726.15,3615.87 2751.5,3637C 2774.4,3660.16 2785.4,3688.16 2784.5,3721C 2783.73,3791.93 2748.73,3834.6 2679.5,3849C 2669.91,3850.71 2660.24,3851.71 2650.5,3852C 2564.5,3852.5 2478.5,3852.67 2392.5,3852.5C 2392.5,3769.17 2392.5,3685.83 2392.5,3602.5 Z M 2392.5,4065.5 C 2480.17,4065.33 2567.83,4065.5 2655.5,4066C 2691.56,4066.69 2724.23,4077.35 2753.5,4098C 2781.5,4121.51 2796.67,4151.67 2799,4188.5C 2802.98,4222.64 2796.65,4254.64 2780,4284.5C 2758.52,4315.26 2729.19,4334.26 2692,4341.5C 2679.94,4343.88 2667.78,4345.38 2655.5,4346C 2567.83,4346.5 2480.17,4346.67 2392.5,4346.5C 2392.5,4252.83 2392.5,4159.17 2392.5,4065.5 Z"/></g>
<g><path style="opacity:0.997" fill="#f6941c" d="M 3149.5,3405.5 C 3328.5,3405.33 3507.5,3405.5 3686.5,3406C 3775.03,3410.52 3848.53,3445.69 3907,3511.5C 3952.23,3568.46 3977.89,3633.46 3984,3706.5C 3991.04,3773.05 3984.04,3838.05 3963,3901.5C 3926.62,4000.72 3857.79,4065.38 3756.5,4095.5C 3849.75,4255.67 3942.75,4416 4035.5,4576.5C 3945.83,4577.83 3856.17,4577.83 3766.5,4576.5C 3679,4420.17 3591.5,4263.83 3504,4107.5C 3459.57,4106.5 3415.07,4106.17 3370.5,4106.5C 3370.5,4263.5 3370.5,4420.5 3370.5,4577.5C 3296.83,4577.5 3223.17,4577.5 3149.5,4577.5C 3149.5,4186.83 3149.5,3796.17 3149.5,3405.5 Z M 3370.5,3618.5 C 3464.17,3618.33 3557.83,3618.5 3651.5,3619C 3700.09,3623.92 3732.59,3649.42 3749,3695.5C 3763.79,3743.34 3760.79,3790 3740,3835.5C 3720.38,3871.74 3689.88,3890.91 3648.5,3893C 3555.83,3893.5 3463.17,3893.67 3370.5,3893.5C 3370.5,3801.83 3370.5,3710.17 3370.5,3618.5 Z"/></g>
<g><path style="opacity:0.959" fill="#065981" d="M 1036.5,3677.5 C 1076.83,3677.5 1117.17,3677.5 1157.5,3677.5C 1157.5,3682.5 1157.5,3687.5 1157.5,3692.5C 1117.17,3692.5 1076.83,3692.5 1036.5,3692.5C 1036.5,3687.5 1036.5,3682.5 1036.5,3677.5 Z"/></g>
<g><path style="opacity:0.996" fill="#f6941c" d="M 4499.5,3728.5 C 4550.09,3727.37 4599.76,3733.53 4648.5,3747C 4755.17,3779.67 4824.33,3849.5 4856,3956.5C 4866.52,3994.11 4872.18,4032.44 4873,4071.5C 4873.67,4129.5 4873.67,4187.5 4873,4245.5C 4872.24,4303.33 4860.24,4358.66 4837,4411.5C 4795.56,4495.59 4729.39,4549.75 4638.5,4574C 4561.55,4592.69 4484.21,4594.36 4406.5,4579C 4275.32,4549.49 4194.16,4469.32 4163,4338.5C 4157.04,4312.15 4153.37,4285.49 4152,4258.5C 4151.33,4191.17 4151.33,4123.83 4152,4056.5C 4154.31,3990.91 4171.98,3929.91 4205,3873.5C 4244.8,3812.4 4299.63,3770.9 4369.5,3749C 4412.05,3736.33 4455.38,3729.49 4499.5,3728.5 Z M 4495.5,3942.5 C 4528.66,3939.75 4559.99,3945.91 4589.5,3961C 4620.12,3980.36 4639.28,4007.86 4647,4043.5C 4648.88,4052.42 4650.21,4061.42 4651,4070.5C 4651.67,4129.17 4651.67,4187.83 4651,4246.5C 4649.39,4278.68 4638.72,4307.34 4619,4332.5C 4595.55,4358.11 4566.38,4372.28 4531.5,4375C 4500.64,4378.44 4470.97,4374.1 4442.5,4362C 4406.71,4342.65 4384.87,4312.82 4377,4272.5C 4374.93,4262.26 4373.6,4251.93 4373,4241.5C 4372.33,4186.17 4372.33,4130.83 4373,4075.5C 4373.82,4042.38 4384.15,4012.72 4404,3986.5C 4428.49,3959.34 4458.99,3944.67 4495.5,3942.5 Z"/></g>
<g><path style="opacity:0.996" fill="#f6941c" d="M 5397.5,3728.5 C 5460.59,3726.44 5521.59,3736.61 5580.5,3759C 5667.9,3796.74 5725.4,3861.24 5753,3952.5C 5763.75,3989.4 5769.75,4027.07 5771,4065.5C 5771.67,4127.5 5771.67,4189.5 5771,4251.5C 5769.92,4321.51 5751.59,4386.51 5716,4446.5C 5672.4,4511.42 5612.56,4553.92 5536.5,4574C 5459.55,4592.71 5382.22,4594.38 5304.5,4579C 5169.84,4547.34 5088.01,4463.84 5059,4328.5C 5054.19,4304.05 5051.19,4279.39 5050,4254.5C 5049.33,4189.83 5049.33,4125.17 5050,4060.5C 5051.8,3990.92 5070.8,3926.59 5107,3867.5C 5146.04,3810.54 5198.54,3771.37 5264.5,3750C 5307.97,3736.63 5352.3,3729.46 5397.5,3728.5 Z M 5393.5,3942.5 C 5424.54,3940.12 5454.2,3945.28 5482.5,3958C 5515.59,3976.97 5536.42,4005.14 5545,4042.5C 5546.89,4051.08 5548.23,4059.75 5549,4068.5C 5549.67,4128.5 5549.67,4188.5 5549,4248.5C 5546.72,4291.89 5528.56,4326.73 5494.5,4353C 5474.72,4365.71 5453.05,4373.04 5429.5,4375C 5394.89,4379.12 5362.23,4373.12 5331.5,4357C 5303.29,4338.77 5285.12,4313.27 5277,4280.5C 5274.59,4270.96 5272.92,4261.3 5272,4251.5C 5270.4,4194.51 5270.06,4137.51 5271,4080.5C 5271.11,4047.51 5280.44,4017.51 5299,3990.5C 5323.62,3961.12 5355.12,3945.12 5393.5,3942.5 Z"/></g>
<g><path style="opacity:0.994" fill="#f6941c" d="M 6390.5,3728.5 C 6509.13,3726.44 6593.29,3778.77 6643,3885.5C 6672.89,3824.61 6718.39,3779.44 6779.5,3750C 6831.83,3728.45 6885.83,3723.12 6941.5,3734C 7013.04,3747.65 7068.54,3784.82 7108,3845.5C 7138.94,3898.66 7157.28,3956 7163,4017.5C 7165.48,4040.1 7166.82,4062.76 7167,4085.5C 7167.5,4249.5 7167.67,4413.5 7167.5,4577.5C 7093.5,4577.5 7019.5,4577.5 6945.5,4577.5C 6945.67,4411.17 6945.5,4244.83 6945,4078.5C 6937.57,3980.72 6885.07,3935.89 6787.5,3944C 6731.41,3952.76 6697.24,3984.92 6685,4040.5C 6683.01,4049.4 6681.68,4058.4 6681,4067.5C 6680.5,4237.5 6680.33,4407.5 6680.5,4577.5C 6606.5,4577.5 6532.5,4577.5 6458.5,4577.5C 6458.67,4410.83 6458.5,4244.17 6458,4077.5C 6450.09,3983.25 6398.92,3938.42 6304.5,3943C 6258.5,3945.72 6225.33,3967.55 6205,4008.5C 6198.92,4023.25 6195.25,4038.58 6194,4054.5C 6193.5,4228.83 6193.33,4403.17 6193.5,4577.5C 6119.5,4577.5 6045.5,4577.5 5971.5,4577.5C 5971.5,4298.5 5971.5,4019.5 5971.5,3740.5C 6045.5,3740.5 6119.5,3740.5 6193.5,3740.5C 6193.33,3777.5 6193.5,3814.5 6194,3851.5C 6216,3815.17 6244.5,3785 6279.5,3761C 6313.75,3740.53 6350.75,3729.69 6390.5,3728.5 Z"/></g>
<g><path style="opacity:0.959" fill="#065981" d="M 1036.5,3765.5 C 1076.83,3765.5 1117.17,3765.5 1157.5,3765.5C 1157.5,3770.5 1157.5,3775.5 1157.5,3780.5C 1117.17,3780.5 1076.83,3780.5 1036.5,3780.5C 1036.5,3775.5 1036.5,3770.5 1036.5,3765.5 Z"/></g>
<g><path style="opacity:0.959" fill="#065981" d="M 1036.5,3854.5 C 1076.83,3854.5 1117.17,3854.5 1157.5,3854.5C 1157.5,3859.5 1157.5,3864.5 1157.5,3869.5C 1117.17,3869.5 1076.83,3869.5 1036.5,3869.5C 1036.5,3864.5 1036.5,3859.5 1036.5,3854.5 Z"/></g>
<g><path style="opacity:0.987" fill="#065981" d="M 1245.5,3865.5 C 1257.83,3865.5 1270.17,3865.5 1282.5,3865.5C 1282.5,3877.83 1282.5,3890.17 1282.5,3902.5C 1270.17,3902.5 1257.83,3902.5 1245.5,3902.5C 1245.5,3890.17 1245.5,3877.83 1245.5,3865.5 Z"/></g>
<g><path style="opacity:0.967" fill="#065981" d="M 1322.5,3865.5 C 1335.17,3865.5 1347.83,3865.5 1360.5,3865.5C 1360.5,3877.83 1360.5,3890.17 1360.5,3902.5C 1347.83,3902.5 1335.17,3902.5 1322.5,3902.5C 1322.5,3890.17 1322.5,3877.83 1322.5,3865.5 Z"/></g>
<g><path style="opacity:0.967" fill="#065981" d="M 1035.5,3942.5 C 1075.83,3942.5 1116.17,3942.5 1156.5,3942.5C 1156.5,3947.5 1156.5,3952.5 1156.5,3957.5C 1116.17,3957.5 1075.83,3957.5 1035.5,3957.5C 1035.5,3952.5 1035.5,3947.5 1035.5,3942.5 Z"/></g>
<g><path style="opacity:0.961" fill="#065981" d="M 1246.5,3944.5 C 1258.83,3944.5 1271.17,3944.5 1283.5,3944.5C 1283.5,3957.17 1283.5,3969.83 1283.5,3982.5C 1271.17,3982.5 1258.83,3982.5 1246.5,3982.5C 1246.5,3969.83 1246.5,3957.17 1246.5,3944.5 Z"/></g>
<g><path style="opacity:0.942" fill="#065981" d="M 1322.5,3944.5 C 1335.17,3944.5 1347.83,3944.5 1360.5,3944.5C 1360.5,3957.17 1360.5,3969.83 1360.5,3982.5C 1347.83,3982.5 1335.17,3982.5 1322.5,3982.5C 1322.5,3969.83 1322.5,3957.17 1322.5,3944.5 Z"/></g>
<g><path style="opacity:0.961" fill="#065981" d="M 1248.5,4024.5 C 1261.17,4024.5 1273.83,4024.5 1286.5,4024.5C 1286.5,4036.83 1286.5,4049.17 1286.5,4061.5C 1273.83,4061.5 1261.17,4061.5 1248.5,4061.5C 1248.5,4049.17 1248.5,4036.83 1248.5,4024.5 Z"/></g>
<g><path style="opacity:0.967" fill="#065981" d="M 1322.5,4024.5 C 1335.17,4024.5 1347.83,4024.5 1360.5,4024.5C 1360.5,4036.83 1360.5,4049.17 1360.5,4061.5C 1347.83,4061.5 1335.17,4061.5 1322.5,4061.5C 1322.5,4049.17 1322.5,4036.83 1322.5,4024.5 Z"/></g>
<g><path style="opacity:0.959" fill="#065981" d="M 1036.5,4031.5 C 1076.83,4031.5 1117.17,4031.5 1157.5,4031.5C 1157.5,4036.5 1157.5,4041.5 1157.5,4046.5C 1117.17,4046.5 1076.83,4046.5 1036.5,4046.5C 1036.5,4041.5 1036.5,4036.5 1036.5,4031.5 Z"/></g>
<g><path style="opacity:0.959" fill="#065981" d="M 1036.5,4119.5 C 1076.83,4119.5 1117.17,4119.5 1157.5,4119.5C 1157.5,4124.5 1157.5,4129.5 1157.5,4134.5C 1117.17,4134.5 1076.83,4134.5 1036.5,4134.5C 1036.5,4129.5 1036.5,4124.5 1036.5,4119.5 Z"/></g>
<g><path style="opacity:0.927" fill="#065981" d="M 1169.5,4295.5 C 1271.83,4295.5 1374.17,4295.5 1476.5,4295.5C 1476.5,4300.83 1476.5,4306.17 1476.5,4311.5C 1374.17,4311.42 1271.83,4311.09 1169.5,4310.5C 1169.5,4305.5 1169.5,4300.5 1169.5,4295.5 Z"/></g>
<g><path style="opacity:0.966" fill="#065981" d="M 1169.5,4384.5 C 1271.83,4384.5 1374.17,4384.5 1476.5,4384.5C 1476.5,4389.5 1476.5,4394.5 1476.5,4399.5C 1374.17,4399.5 1271.83,4399.5 1169.5,4399.5C 1169.5,4394.5 1169.5,4389.5 1169.5,4384.5 Z"/></g>
<g><path style="opacity:0.905" fill="#065981" d="M 1169.5,4472.5 C 1271.83,4472.5 1374.17,4472.5 1476.5,4472.5C 1476.5,4477.83 1476.5,4483.17 1476.5,4488.5C 1374.17,4488.5 1271.83,4488.5 1169.5,4488.5C 1169.5,4483.17 1169.5,4477.83 1169.5,4472.5 Z"/></g>
<g><path style="opacity:0.952" fill="#065981" d="M 1169.5,4560.5 C 1271.83,4560.5 1374.17,4560.5 1476.5,4560.5C 1476.5,4565.83 1476.5,4571.17 1476.5,4576.5C 1374.17,4575.68 1271.84,4575.35 1169.5,4575.5C 1169.5,4570.5 1169.5,4565.5 1169.5,4560.5 Z"/></g>
<g><path style="opacity:0.973" fill="#065981" d="M 4915.5,4642.5 C 4916.82,4642.33 4917.99,4642.66 4919,4643.5C 4941.47,4672.27 4964.31,4700.77 4987.5,4729C 4973.17,4740.83 4958.83,4752.67 4944.5,4764.5C 4919.34,4737.18 4894.34,4709.68 4869.5,4682C 4885.09,4669.05 4900.42,4655.89 4915.5,4642.5 Z"/></g>
<g><path style="opacity:0.966" fill="#065981" d="M 1169.5,4649.5 C 1271.83,4649.5 1374.17,4649.5 1476.5,4649.5C 1476.5,4654.5 1476.5,4659.5 1476.5,4664.5C 1374.17,4664.5 1271.83,4664.5 1169.5,4664.5C 1169.5,4659.5 1169.5,4654.5 1169.5,4649.5 Z"/></g>
<g><path style="opacity:0.974" fill="#065981" d="M 2096.5,4729.5 C 2097.92,4729.71 2099.26,4730.21 2100.5,4731C 2128.5,4757.67 2156.5,4784.33 2184.5,4811C 2171.68,4822.32 2159.02,4833.82 2146.5,4845.5C 2130.47,4830.13 2114.13,4815.13 2097.5,4800.5C 2081.43,4815.62 2065.26,4830.62 2049,4845.5C 2036.67,4834.5 2024.33,4823.5 2012,4812.5C 2011.33,4811.5 2011.33,4810.5 2012,4809.5C 2040.06,4782.6 2068.23,4755.93 2096.5,4729.5 Z"/></g>
<g><path style="opacity:0.974" fill="#065981" d="M 4873.5,4729.5 C 4874.55,4729.35 4875.55,4729.52 4876.5,4730C 4904.68,4757.02 4933.02,4783.85 4961.5,4810.5C 4949.25,4822.62 4936.59,4834.29 4923.5,4845.5C 4907.18,4830.35 4891.02,4815.02 4875,4799.5C 4858.98,4815.02 4842.82,4830.35 4826.5,4845.5C 4813.21,4834.54 4800.54,4822.87 4788.5,4810.5C 4817.16,4783.84 4845.49,4756.84 4873.5,4729.5 Z"/></g>
<g><path style="opacity:0.974" fill="#065981" d="M 5889.5,4729.5 C 5891.26,4730.07 5892.92,4730.91 5894.5,4732C 5922.17,4758.33 5949.83,4784.67 5977.5,4811C 5964.68,4822.32 5952.02,4833.82 5939.5,4845.5C 5923.47,4830.13 5907.13,4815.13 5890.5,4800.5C 5874.05,4815.15 5857.88,4830.15 5842,4845.5C 5829.67,4834.5 5817.33,4823.5 5805,4812.5C 5804.33,4811.5 5804.33,4810.5 5805,4809.5C 5833.06,4782.6 5861.23,4755.93 5889.5,4729.5 Z"/></g>
<g><path style="opacity:0.92" fill="#065981" d="M 1169.5,4737.5 C 1271.83,4737.5 1374.17,4737.5 1476.5,4737.5C 1476.5,4742.83 1476.5,4748.17 1476.5,4753.5C 1374.16,4753.61 1271.83,4753.27 1169.5,4752.5C 1169.5,4747.5 1169.5,4742.5 1169.5,4737.5 Z"/></g>
<g><path style="opacity:0.992" fill="#065981" d="M 1738.5,4777.5 C 1825.17,4777.5 1911.83,4777.5 1998.5,4777.5C 1998.5,4799.17 1998.5,4820.83 1998.5,4842.5C 1966.5,4842.5 1934.5,4842.5 1902.5,4842.5C 1902.5,4938.83 1902.5,5035.17 1902.5,5131.5C 1880.17,5131.5 1857.83,5131.5 1835.5,5131.5C 1835.5,5035.17 1835.5,4938.83 1835.5,4842.5C 1803.17,4842.5 1770.83,4842.5 1738.5,4842.5C 1738.5,4820.83 1738.5,4799.17 1738.5,4777.5 Z"/></g>
<g><path style="opacity:0.982" fill="#065981" d="M 5659.5,4777.5 C 5682.17,4777.5 5704.83,4777.5 5727.5,4777.5C 5727.5,4799.83 5727.5,4822.17 5727.5,4844.5C 5704.83,4844.5 5682.17,4844.5 5659.5,4844.5C 5659.5,4822.17 5659.5,4799.83 5659.5,4777.5 Z"/></g>
<g><path style="opacity:0.981" fill="#065981" d="M 2684.5,4804.5 C 2707.17,4804.5 2729.83,4804.5 2752.5,4804.5C 2752.5,4829.17 2752.5,4853.83 2752.5,4878.5C 2762.83,4878.5 2773.17,4878.5 2783.5,4878.5C 2783.5,4897.83 2783.5,4917.17 2783.5,4936.5C 2773.17,4936.5 2762.83,4936.5 2752.5,4936.5C 2752.33,4976.17 2752.5,5015.83 2753,5055.5C 2754.03,5059.72 2756.19,5063.22 2759.5,5066C 2767.41,5067.4 2775.41,5067.9 2783.5,5067.5C 2783.5,5089.17 2783.5,5110.83 2783.5,5132.5C 2767.5,5132.67 2751.5,5132.5 2735.5,5132C 2710.57,5129.73 2694.73,5116.56 2688,5092.5C 2686.35,5085.93 2685.35,5079.27 2685,5072.5C 2684.5,5027.17 2684.33,4981.83 2684.5,4936.5C 2675.83,4936.5 2667.17,4936.5 2658.5,4936.5C 2658.5,4917.17 2658.5,4897.83 2658.5,4878.5C 2667.17,4878.5 2675.83,4878.5 2684.5,4878.5C 2684.5,4853.83 2684.5,4829.17 2684.5,4804.5 Z"/></g>
<g><path style="opacity:0.992" fill="#065981" d="M 6741.5,4804.5 C 6763.83,4804.5 6786.17,4804.5 6808.5,4804.5C 6808.5,4829.17 6808.5,4853.83 6808.5,4878.5C 6818.83,4878.5 6829.17,4878.5 6839.5,4878.5C 6839.5,4897.83 6839.5,4917.17 6839.5,4936.5C 6829.17,4936.5 6818.83,4936.5 6808.5,4936.5C 6808.03,4976.87 6808.53,5017.21 6810,5057.5C 6811.07,5062.24 6813.9,5065.4 6818.5,5067C 6825.49,5067.5 6832.49,5067.67 6839.5,5067.5C 6839.5,5089.17 6839.5,5110.83 6839.5,5132.5C 6823.5,5132.67 6807.5,5132.5 6791.5,5132C 6760.99,5127.82 6744.49,5110.32 6742,5079.5C 6741.5,5031.83 6741.33,4984.17 6741.5,4936.5C 6732.83,4936.5 6724.17,4936.5 6715.5,4936.5C 6715.5,4917.17 6715.5,4897.83 6715.5,4878.5C 6724.17,4878.5 6732.83,4878.5 6741.5,4878.5C 6741.5,4853.83 6741.5,4829.17 6741.5,4804.5 Z"/></g>
<g><path style="opacity:0.965" fill="#065981" d="M 1169.5,4825.5 C 1271.83,4825.5 1374.17,4825.5 1476.5,4825.5C 1476.5,4830.5 1476.5,4835.5 1476.5,4840.5C 1374.17,4840.5 1271.83,4840.5 1169.5,4840.5C 1169.5,4835.5 1169.5,4830.5 1169.5,4825.5 Z"/></g>
<g><path style="opacity:0.982" fill="#065981" d="M 7121.5,4826.5 C 7140.83,4826.5 7160.17,4826.5 7179.5,4826.5C 7179.67,4837.84 7179.5,4849.17 7179,4860.5C 7172.96,4890.86 7154.46,4907.7 7123.5,4911C 7118.85,4911.5 7114.18,4911.67 7109.5,4911.5C 7109.5,4984.83 7109.5,5058.17 7109.5,5131.5C 7086.83,5131.5 7064.17,5131.5 7041.5,5131.5C 7041.67,5120.49 7041.5,5109.49 7041,5098.5C 7021.35,5131.4 6992.85,5142.56 6955.5,5132C 6928.69,5123.86 6911.19,5106.36 6903,5079.5C 6900.56,5071.32 6898.9,5062.98 6898,5054.5C 6896.57,4995.85 6896.07,4937.18 6896.5,4878.5C 6919.17,4878.5 6941.83,4878.5 6964.5,4878.5C 6964.03,4933.87 6964.53,4989.2 6966,5044.5C 6972.02,5062.12 6984.52,5070.79 7003.5,5070.5C 7024.21,5070.58 7036.71,5060.58 7041,5040.5C 7041.5,4986.5 7041.67,4932.5 7041.5,4878.5C 7057.17,4878.67 7072.84,4878.5 7088.5,4878C 7104.77,4876.47 7115.27,4867.97 7120,4852.5C 7121.14,4843.87 7121.64,4835.2 7121.5,4826.5 Z"/></g>
<g><path style="opacity:0.988" fill="#065981" d="M 2087.5,4874.5 C 2117.24,4872.27 2144.57,4879.11 2169.5,4895C 2191.26,4913.35 2203.43,4936.85 2206,4965.5C 2206.67,4991.5 2206.67,5017.5 2206,5043.5C 2200.21,5096.29 2171.04,5126.46 2118.5,5134C 2093.49,5137.27 2069.16,5134.61 2045.5,5126C 2010.92,5109.07 1992.09,5081.23 1989,5042.5C 1988.33,5017.17 1988.33,4991.83 1989,4966.5C 1992.73,4922.8 2015.23,4893.97 2056.5,4880C 2066.84,4877.36 2077.17,4875.53 2087.5,4874.5 Z M 2093.5,4939.5 C 2120.14,4938.65 2135.31,4951.32 2139,4977.5C 2139.67,4995.83 2139.67,5014.17 2139,5032.5C 2135.88,5056.79 2122.04,5069.46 2097.5,5070.5C 2072.02,5069.19 2058.19,5055.85 2056,5030.5C 2055.33,5013.17 2055.33,4995.83 2056,4978.5C 2058.23,4955.44 2070.73,4942.44 2093.5,4939.5 Z"/></g>
<g><path style="opacity:0.983" fill="#065981" d="M 2388.5,4874.5 C 2430.06,4872.01 2458.23,4890.01 2473,4928.5C 2477.54,4943.15 2479.87,4958.15 2480,4973.5C 2480.5,5026.17 2480.67,5078.83 2480.5,5131.5C 2457.83,5131.5 2435.17,5131.5 2412.5,5131.5C 2412.98,5076.46 2412.48,5021.46 2411,4966.5C 2407.58,4954.08 2399.75,4945.91 2387.5,4942C 2373.41,4937.97 2360.08,4939.63 2347.5,4947C 2340.6,4952.96 2336.44,4960.46 2335,4969.5C 2334.5,5023.5 2334.33,5077.5 2334.5,5131.5C 2311.83,5131.5 2289.17,5131.5 2266.5,5131.5C 2266.5,5047.17 2266.5,4962.83 2266.5,4878.5C 2289.17,4878.5 2311.83,4878.5 2334.5,4878.5C 2334.33,4888.84 2334.5,4899.17 2335,4909.5C 2344.38,4893.45 2357.88,4882.62 2375.5,4877C 2379.99,4876.24 2384.32,4875.41 2388.5,4874.5 Z"/></g>
<g><path style="opacity:0.982" fill="#065981" d="M 2964.5,4874.5 C 2980.38,4873.64 2995.38,4876.81 3009.5,4884C 3014.42,4886.92 3018.75,4890.58 3022.5,4895C 3009.89,4913.28 2996.89,4931.28 2983.5,4949C 2969.35,4939.55 2954.02,4937.55 2937.5,4943C 2923.9,4949.99 2916.07,4961.16 2914,4976.5C 2913.5,5028.17 2913.33,5079.83 2913.5,5131.5C 2889.17,5131.5 2864.83,5131.5 2840.5,5131.5C 2840.5,5047.17 2840.5,4962.83 2840.5,4878.5C 2864.83,4878.5 2889.17,4878.5 2913.5,4878.5C 2913.33,4888.84 2913.5,4899.17 2914,4909.5C 2925.57,4890.08 2942.4,4878.41 2964.5,4874.5 Z"/></g>
<g><path style="opacity:0.986" fill="#065981" d="M 3139.5,4874.5 C 3168.74,4872.18 3195.74,4878.68 3220.5,4894C 3241.92,4911 3254.42,4933.16 3258,4960.5C 3259.58,4986.81 3259.91,5013.14 3259,5039.5C 3254.36,5093.8 3225.2,5125.3 3171.5,5134C 3078.79,5140.79 3035.13,5097.63 3040.5,5004.5C 3039.52,4983.89 3041.36,4963.56 3046,4943.5C 3055.83,4911 3077,4889.83 3109.5,4880C 3119.51,4877.39 3129.51,4875.56 3139.5,4874.5 Z M 3146.5,4939.5 C 3170.38,4938.57 3185.22,4949.57 3191,4972.5C 3191.67,4993.83 3191.67,5015.17 3191,5036.5C 3186.2,5058.29 3172.53,5069.62 3150,5070.5C 3126.62,5069.45 3112.96,5057.45 3109,5034.5C 3108.33,5014.5 3108.33,4994.5 3109,4974.5C 3113,4953.6 3125.5,4941.94 3146.5,4939.5 Z"/></g>
<g><path style="opacity:0.992" fill="#065981" d="M 3440.5,4874.5 C 3486.21,4872.07 3515.37,4892.73 3528,4936.5C 3529.87,4944.75 3531.21,4953.08 3532,4961.5C 3532.5,5018.17 3532.67,5074.83 3532.5,5131.5C 3510.17,5131.5 3487.83,5131.5 3465.5,5131.5C 3465.97,5076.81 3465.47,5022.14 3464,4967.5C 3458.08,4948.61 3445.08,4939.27 3425,4939.5C 3405.59,4939.69 3393.25,4949.02 3388,4967.5C 3386.53,5022.14 3386.03,5076.8 3386.5,5131.5C 3364.17,5131.5 3341.83,5131.5 3319.5,5131.5C 3319.5,5047.17 3319.5,4962.83 3319.5,4878.5C 3341.83,4878.5 3364.17,4878.5 3386.5,4878.5C 3386.33,4889.17 3386.5,4899.84 3387,4910.5C 3398.77,4889.37 3416.6,4877.37 3440.5,4874.5 Z"/></g>
<g><path style="opacity:0.988" fill="#065981" d="M 3667.5,4874.5 C 3696.12,4873.06 3717.95,4884.39 3733,4908.5C 3733.5,4898.51 3733.67,4888.51 3733.5,4878.5C 3755.83,4878.5 3778.17,4878.5 3800.5,4878.5C 3800.67,4966.17 3800.5,5053.83 3800,5141.5C 3793.88,5192.29 3765.71,5222.46 3715.5,5232C 3687.42,5236.66 3660.09,5233.99 3633.5,5224C 3620.37,5218.54 3609.2,5210.37 3600,5199.5C 3598.6,5197.61 3597.43,5195.61 3596.5,5193.5C 3610.79,5178.88 3625.79,5164.88 3641.5,5151.5C 3661.35,5170.57 3684.35,5175.41 3710.5,5166C 3721.75,5160.43 3728.91,5151.59 3732,5139.5C 3733.56,5127.22 3733.89,5114.88 3733,5102.5C 3720.05,5124.73 3700.55,5135.73 3674.5,5135.5C 3632.12,5133.38 3605.62,5111.71 3595,5070.5C 3593.13,5062.93 3591.79,5055.26 3591,5047.5C 3588.51,5014.75 3589.18,4982.09 3593,4949.5C 3596.79,4925.07 3607.96,4904.9 3626.5,4889C 3639.02,4880.66 3652.69,4875.83 3667.5,4874.5 Z M 3689.5,4937.5 C 3715.07,4934.92 3729.57,4946.25 3733,4971.5C 3733.67,4994.17 3733.67,5016.83 3733,5039.5C 3731.19,5057.64 3721.36,5068.47 3703.5,5072C 3676.34,5074.18 3661.17,5061.68 3658,5034.5C 3657.33,5015.17 3657.33,4995.83 3658,4976.5C 3659.68,4956.02 3670.18,4943.02 3689.5,4937.5 Z"/></g>
<g><path style="opacity:0.99" fill="#065981" d="M 4068.5,4874.5 C 4097.7,4873.18 4119.86,4884.85 4135,4909.5C 4135.5,4899.17 4135.67,4888.84 4135.5,4878.5C 4157.83,4878.5 4180.17,4878.5 4202.5,4878.5C 4202.5,4997.17 4202.5,5115.83 4202.5,5234.5C 4180.17,5234.5 4157.83,5234.5 4135.5,5234.5C 4135.67,5190.5 4135.5,5146.5 4135,5102.5C 4121.73,5124.23 4102.23,5135.23 4076.5,5135.5C 4043.11,5135.07 4018.94,5120.07 4004,5090.5C 3996.42,5072.62 3992.42,5053.95 3992,5034.5C 3991.33,5015.17 3991.33,4995.83 3992,4976.5C 3992.18,4950.43 3999.18,4926.43 4013,4904.5C 4027.19,4886.49 4045.69,4876.49 4068.5,4874.5 Z M 4091.5,4937.5 C 4117.33,4935.31 4131.83,4946.98 4135,4972.5C 4135.67,4994.5 4135.67,5016.5 4135,5038.5C 4133.66,5057.17 4123.83,5068.34 4105.5,5072C 4078.79,5074.3 4063.63,5062.13 4060,5035.5C 4059.33,5015.5 4059.33,4995.5 4060,4975.5C 4061.86,4955.34 4072.36,4942.67 4091.5,4937.5 Z"/></g>
<g><path style="opacity:0.985" fill="#065981" d="M 4866.5,4874.5 C 4915.55,4871.76 4949.72,4892.76 4969,4937.5C 4979.72,4968.27 4983.89,4999.94 4981.5,5032.5C 4930.17,5032.5 4878.83,5032.5 4827.5,5032.5C 4829.33,5051.49 4839,5064.65 4856.5,5072C 4883.93,5080.25 4908.76,5075.41 4931,5057.5C 4946.13,5070.3 4960.96,5083.46 4975.5,5097C 4931.61,5135.37 4881.95,5145.04 4826.5,5126C 4792.56,5110.65 4772.72,5084.48 4767,5047.5C 4765.01,5020.17 4765.01,4992.84 4767,4965.5C 4776.5,4909.16 4809.67,4878.83 4866.5,4874.5 Z M 4866.5,4936.5 C 4894.69,4933.51 4911.86,4945.84 4918,4973.5C 4918.92,4977.79 4919.42,4982.12 4919.5,4986.5C 4888.5,4986.5 4857.5,4986.5 4826.5,4986.5C 4827.08,4959.29 4840.41,4942.62 4866.5,4936.5 Z"/></g>
<g><path style="opacity:0.988" fill="#065981" d="M 5160.5,4874.5 C 5208.28,4872.79 5237.78,4895.13 5249,4941.5C 5250.47,4948.77 5251.47,4956.1 5252,4963.5C 5252.5,5019.5 5252.67,5075.5 5252.5,5131.5C 5229.83,5131.5 5207.17,5131.5 5184.5,5131.5C 5184.67,5077.17 5184.5,5022.83 5184,4968.5C 5181.45,4954.95 5173.62,4946.12 5160.5,4942C 5146.97,4938.17 5133.97,4939.5 5121.5,4946C 5114.38,4951.06 5109.88,4957.9 5108,4966.5C 5106.53,5021.47 5106.03,5076.47 5106.5,5131.5C 5084.17,5131.5 5061.83,5131.5 5039.5,5131.5C 5039.5,5047.17 5039.5,4962.83 5039.5,4878.5C 5061.83,4878.5 5084.17,4878.5 5106.5,4878.5C 5106.33,4889.17 5106.5,4899.84 5107,4910.5C 5118.78,4889.37 5136.62,4877.37 5160.5,4874.5 Z"/></g>
<g><path style="opacity:0.982" fill="#065981" d="M 5574.5,4874.5 C 5593.1,4873.25 5610.1,4877.75 5625.5,4888C 5628.13,4890.13 5630.47,4892.46 5632.5,4895C 5619.71,4913.3 5606.71,4931.46 5593.5,4949.5C 5574.35,4936.02 5555.35,4936.19 5536.5,4950C 5529.26,4957.71 5525.09,4966.88 5524,4977.5C 5523.5,5028.83 5523.33,5080.17 5523.5,5131.5C 5499.17,5131.5 5474.83,5131.5 5450.5,5131.5C 5450.5,5047.17 5450.5,4962.83 5450.5,4878.5C 5474.83,4878.5 5499.17,4878.5 5523.5,4878.5C 5523.33,4888.84 5523.5,4899.17 5524,4909.5C 5535.57,4890.08 5552.4,4878.41 5574.5,4874.5 Z"/></g>
<g><path style="opacity:0.984" fill="#065981" d="M 5881.5,4874.5 C 5928.91,4871.44 5962.74,4891.1 5983,4933.5C 5994.95,4965.41 5999.78,4998.41 5997.5,5032.5C 5945.83,5032.33 5894.17,5032.5 5842.5,5033C 5847.57,5060.05 5863.9,5074.38 5891.5,5076C 5912.3,5076.62 5930.8,5070.46 5947,5057.5C 5961.04,5070.54 5975.37,5083.21 5990,5095.5C 5990.63,5097.9 5989.8,5099.74 5987.5,5101C 5941.98,5137.03 5891.98,5144.7 5837.5,5124C 5812.51,5112.01 5795.68,5092.85 5787,5066.5C 5783.71,5055.4 5781.71,5044.06 5781,5032.5C 5779.67,5007.39 5780.67,4982.39 5784,4957.5C 5796.17,4905.85 5828.67,4878.18 5881.5,4874.5 Z M 5882.5,4936.5 C 5904.71,4933.18 5920.54,4941.52 5930,4961.5C 5933.05,4969.57 5934.88,4977.9 5935.5,4986.5C 5904.5,4986.5 5873.5,4986.5 5842.5,4986.5C 5843.1,4959.27 5856.43,4942.6 5882.5,4936.5 Z"/></g>
<g><path style="opacity:0.982" fill="#065981" d="M 6176.5,4874.5 C 6227.47,4873.57 6257.3,4898.24 6266,4948.5C 6266.97,4955.13 6267.64,4961.8 6268,4968.5C 6268.5,5022.83 6268.67,5077.17 6268.5,5131.5C 6245.83,5131.5 6223.17,5131.5 6200.5,5131.5C 6200.98,5076.13 6200.48,5020.8 6199,4965.5C 6192.32,4948.02 6179.49,4939.36 6160.5,4939.5C 6139.56,4939.86 6127.06,4950.19 6123,4970.5C 6122.5,5024.17 6122.33,5077.83 6122.5,5131.5C 6099.83,5131.5 6077.17,5131.5 6054.5,5131.5C 6054.5,5047.17 6054.5,4962.83 6054.5,4878.5C 6077.17,4878.5 6099.83,4878.5 6122.5,4878.5C 6122.33,4888.84 6122.5,4899.17 6123,4909.5C 6131.4,4895.76 6142.9,4885.6 6157.5,4879C 6163.86,4876.99 6170.19,4875.49 6176.5,4874.5 Z"/></g>
<g><path style="opacity:0.984" fill="#065981" d="M 6402.5,4874.5 C 6431.1,4873.05 6452.93,4884.38 6468,4908.5C 6468.5,4898.51 6468.67,4888.51 6468.5,4878.5C 6491.17,4878.5 6513.83,4878.5 6536.5,4878.5C 6536.67,4964.5 6536.5,5050.5 6536,5136.5C 6531.02,5193.48 6500.19,5225.64 6443.5,5233C 6409.07,5237.98 6377.4,5230.98 6348.5,5212C 6341.6,5206.94 6335.93,5200.77 6331.5,5193.5C 6346.47,5179.53 6361.47,5165.53 6376.5,5151.5C 6395.68,5169.97 6418.01,5175.14 6443.5,5167C 6457.14,5161.69 6465.31,5151.86 6468,5137.5C 6468.67,5126.17 6468.67,5114.83 6468,5103.5C 6450.51,5129.98 6426.01,5140.15 6394.5,5134C 6366.36,5128.86 6346.86,5113.03 6336,5086.5C 6330.24,5072.05 6326.91,5057.05 6326,5041.5C 6325.33,5017.5 6325.33,4993.5 6326,4969.5C 6326.92,4944.44 6334.59,4921.77 6349,4901.5C 6363.33,4885.42 6381.16,4876.42 6402.5,4874.5 Z M 6424.5,4937.5 C 6441.42,4934.99 6454.58,4940.66 6464,4954.5C 6465.94,4958.65 6467.27,4962.98 6468,4967.5C 6468.67,4992.83 6468.67,5018.17 6468,5043.5C 6465.04,5060.12 6455.21,5069.62 6438.5,5072C 6413.22,5074.06 6398.39,5062.56 6394,5037.5C 6393.06,5014.13 6393.4,4990.8 6395,4967.5C 6399.02,4951.64 6408.86,4941.64 6424.5,4937.5 Z"/></g>
<g><path style="opacity:0.992" fill="#065981" d="M 4267.5,4878.5 C 4289.83,4878.5 4312.17,4878.5 4334.5,4878.5C 4334.04,4933.19 4334.54,4987.86 4336,5042.5C 4341.38,5061.13 4353.88,5070.46 4373.5,5070.5C 4393.11,5070.47 4405.61,5061.13 4411,5042.5C 4412.47,4987.86 4412.97,4933.2 4412.5,4878.5C 4434.83,4878.5 4457.17,4878.5 4479.5,4878.5C 4479.5,4962.83 4479.5,5047.17 4479.5,5131.5C 4457.17,5131.5 4434.83,5131.5 4412.5,5131.5C 4412.67,5120.16 4412.5,5108.83 4412,5097.5C 4392.35,5131.22 4363.52,5142.72 4325.5,5132C 4297.33,5122.5 4279.5,5103.33 4272,5074.5C 4270.02,5066.61 4268.68,5058.61 4268,5050.5C 4267.5,4993.17 4267.33,4935.83 4267.5,4878.5 Z"/></g>
<g><path style="opacity:0.984" fill="#065981" d="M 4510.5,4878.5 C 4531.83,4878.5 4553.17,4878.5 4574.5,4878.5C 4592.5,4926.99 4611,4975.33 4630,5023.5C 4647.05,4975.68 4663.72,4927.68 4680,4879.5C 4701.43,4878.34 4722.93,4878.17 4744.5,4879C 4705.54,4986.89 4666.37,5094.73 4627,5202.5C 4616.23,5223.23 4599.06,5234.4 4575.5,5236C 4564.84,5236.5 4554.17,5236.67 4543.5,5236.5C 4543.5,5214.83 4543.5,5193.17 4543.5,5171.5C 4551.56,5171.82 4559.56,5171.32 4567.5,5170C 4576.79,5168.04 4582.96,5162.54 4586,5153.5C 4590.84,5139.65 4595.67,5125.82 4600.5,5112C 4569.81,5034.42 4539.81,4956.59 4510.5,4878.5 Z"/></g>
<g><path style="opacity:0.983" fill="#065981" d="M 5659.5,4878.5 C 5682.17,4878.5 5704.83,4878.5 5727.5,4878.5C 5727.5,4962.83 5727.5,5047.17 5727.5,5131.5C 5704.83,5131.5 5682.17,5131.5 5659.5,5131.5C 5659.5,5047.17 5659.5,4962.83 5659.5,4878.5 Z"/></g>
<g><path style="opacity:0.966" fill="#065981" d="M 1169.5,4914.5 C 1271.83,4914.5 1374.17,4914.5 1476.5,4914.5C 1476.5,4919.5 1476.5,4924.5 1476.5,4929.5C 1374.17,4929.5 1271.83,4929.5 1169.5,4929.5C 1169.5,4924.5 1169.5,4919.5 1169.5,4914.5 Z"/></g>
<g><path style="opacity:0.945" fill="#065981" d="M 1169.5,5002.5 C 1271.83,5002.5 1374.17,5002.5 1476.5,5002.5C 1476.5,5007.83 1476.5,5013.17 1476.5,5018.5C 1374.17,5017.81 1271.83,5017.48 1169.5,5017.5C 1169.5,5012.5 1169.5,5007.5 1169.5,5002.5 Z"/></g>
<g><path style="opacity:0.996" fill="#065981" d="M 3116.5,5184.5 C 3138.83,5184.5 3161.17,5184.5 3183.5,5184.5C 3183.5,5207.17 3183.5,5229.83 3183.5,5252.5C 3161.17,5252.5 3138.83,5252.5 3116.5,5252.5C 3116.5,5229.83 3116.5,5207.17 3116.5,5184.5 Z"/></g>
</svg>
